<svg viewBox="0 0 155 89" fill="none" xmlns="http://www.w3.org/2000/svg" style="color: #4b00ad;"
  class="w-full h-full text-current">
  <path d="M77.4316 49.4968L70.7829 49.4969L55.2691 2.21685" stroke="currentColor"
    stroke-width="4.43251" stroke-linecap="round" />
  <path d="M3.55859 54.6685L55.2724 2.21657" stroke="currentColor" stroke-width="4.43251"
    stroke-linecap="round" />
  <line x1="2.21625" y1="-2.21625" x2="45.1255" y2="-2.21625"
    transform="matrix(-0.709987 -0.704215 -0.704215 0.709987 33.6113 88.6511)" stroke="currentColor"
    stroke-width="4.43251" stroke-linecap="round" />
  <line x1="2.21625" y1="-2.21625" x2="26.5109" y2="-2.21625"
    transform="matrix(-0.710271 0.703929 0.703929 0.710271 54.0137 68.429)" stroke="currentColor"
    stroke-width="4.43251" stroke-linecap="round" />
  <line x1="2.21625" y1="-2.21625" x2="15.5114" y2="-2.21625"
    transform="matrix(0.721056 0.692877 0.692877 -0.721056 41.2324 56.146)" stroke="currentColor"
    stroke-width="4.43251" stroke-linecap="round" />
  <line x1="2.21625" y1="-2.21625" x2="8.31857" y2="-2.21625"
    transform="matrix(0.723435 -0.690393 -0.690393 -0.723435 33.6113 63.4189)" stroke="currentColor"
    stroke-width="4.43251" stroke-linecap="round" />
  <path d="M40.4961 67.2271L36.7316 63.7292" stroke="currentColor" stroke-width="4.43251"
    stroke-linecap="round" />
  <path d="M77.4316 49.4971L84.0804 49.4972L99.5942 2.2171" stroke="currentColor" stroke-width="4.43251"
    stroke-linecap="round" />
  <path d="M151.305 54.6687L99.5909 2.21681" stroke="currentColor" stroke-width="4.43251"
    stroke-linecap="round" />
  <line x1="121.263" y1="85.5169" x2="151.728" y2="55.2996" stroke="currentColor" stroke-width="4.43251"
    stroke-linecap="round" />
  <line x1="103.982" y1="68.4151" x2="121.238" y2="85.5168" stroke="currentColor" stroke-width="4.43251"
    stroke-linecap="round" />
  <line x1="113.566" y1="59.2799" x2="103.98" y2="68.4918" stroke="currentColor" stroke-width="4.43251"
    stroke-linecap="round" />
  <line x1="118.117" y1="63.4924" x2="113.702" y2="59.2794" stroke="currentColor" stroke-width="4.43251"
    stroke-linecap="round" />
  <path d="M114.367 67.2271L118.132 63.7292" stroke="currentColor" stroke-width="4.43251"
    stroke-linecap="round" />
</svg>
